<svg id="Layer_1" data-name="Layer 1" xmlns="http://www.w3.org/2000/svg" viewBox="0 0 493.01 436.4"><defs><style>.cls-1{fill:#ee2359;}.cls-2{fill:none;}</style></defs><title>fondo1</title><path class="cls-1" d="M110.53,44.91C160,27,217.6,29.14,265.05,0,239.69,40.87,238,32.62,209.52,67.41c42.5-12.9,49.61.39,92.82-.36-.8,5.43-4.15,8.56-7.17,11-32.88,27.06-4.78,23.76-37.65,50.82,41.59-11.06,22.38,8.2,64.5,6.85-13.39,19.1-45.89,75.79-63,83.15-63.3,27.21-111,11.48-171.85,51-.33-11.38,6.52-19.17,12.27-25.44s11.87-16.82,9.37-27.43a326.93,326.93,0,0,1-86.12,8.51c3.57-8.56,9.65-13.1,15.43-17.23C74.93,182,36.22,174.74,73,148.41c-49.5-2.77-23.55-21.49-73-18,8.18,0,21.66-15.42,29.35-20.89,10.73-7.64,13.45-30,24.18-37.64C71.58,59.07,91.27,51.9,110.53,44.91Z"/><rect class="cls-2" x="1.03" y="1.42" width="491.98" height="434.98"/></svg>