<svg id="Capa_1" data-name="Capa 1" xmlns="http://www.w3.org/2000/svg" viewBox="0 0 607 644.98"><defs><style>.cls-1{fill:none;stroke:#7f3300;stroke-linecap:round;stroke-linejoin:round;stroke-width:4px;}</style></defs><title>trazo</title><path class="cls-1" d="M809.35,401.41S871.07,278,873.45,275.59s178-45.11,178-45.11l121.07,23.74,59.36,21.37,61.72,125.82,9.5,54.6-19,111.58-35.61,45.11-33.23,40.36-26.12,42.73-9.49,40.36-28.49,40.35-42.73,11.87L1075.24,824h-45.11l-38-38-38-9.5-33.24-42.73-16.62-45.1-16.62-33.24L847.33,612.7l-28.48-47.48L799.85,456Z" transform="translate(-748 -181)"/><path class="cls-1" d="M1105.77,708.78s-31.56-.87-29.86,21.56" transform="translate(-748 -181)"/><path class="cls-1" d="M1029.85,737s-2.09-29.34-40.07-34.09l11.87-16.62,28.48,7.12h42.74l28.48-7.12,9.46,18.55" transform="translate(-748 -181)"/><path class="cls-1" d="M992.15,786s57-19,59.35-19,59.35,19,59.35,19l-57-9.5Z" transform="translate(-748 -181)"/><line class="cls-1" x1="303.5" y1="586.01" x2="303.5" y2="562.27"/><polyline class="cls-1" points="426.67 73.97 514.79 11.5 555.15 4.37 583.63 20.99 605 94.59 571.76 132.57 571.76 194.29 545.65 220.41"/><path class="cls-1" d="M992.15,555.72c-4.75-9.5-47.48-111.58-47.48-111.58l-45.11-9.49L873.45,494v61.72l28.49-40.36,30.86,19h40.36Z" transform="translate(-748 -181)"/><polyline class="cls-1" points="226.96 335.05 215.66 343.86 184.8 343.86 165.81 322.49 163.43 303.5 187.17 303.5 221.1 321.23"/><polyline class="cls-1" points="205.65 313.16 205.65 324.87 184.8 324.87 184.8 303.5"/><polyline class="cls-1" points="163.43 303.5 153.94 303.5 125.45 313 82.72 343.86 70.85 384.22"/><line class="cls-1" x1="153.94" y1="303.5" x2="153.94" y2="334.36"/><path class="cls-1" d="M1051.5,230.48V529.61l-59.35,95-9.5,42.73,7.13,35.61s35.49,40.36,59.35,40.36c14.24,0,64.09-40.36,64.09-40.36l11.87-40.36-11.87-35.61-59.35-97.33" transform="translate(-748 -181)"/><polyline class="cls-1" points="218.77 200.21 194.29 263.14 184.8 78.78 253.65 324.87 244.15 374.72 213.29 431.7 163.43 514.79"/><polyline class="cls-1" points="125.45 94.59 132.57 194.29 153.94 253.65 51.85 275.01"/><polyline class="cls-1" points="180.26 79.92 132.57 194.29 61.35 220.41 35.24 194.29 32.86 134.94 2 96.96 20.99 20.99 51.85 2 99.33 13.87 188.74 77.79 303.5 163.56 213.29 184.8"/><polyline class="cls-1" points="52.54 278.98 82.72 343.86 130.2 419.83 163.43 450.69 174.83 495.8"/><polyline class="cls-1" points="163.43 445.94 184.8 353.35 213.29 431.7 244.15 445.94"/><line class="cls-1" x1="125.45" y1="374.72" x2="130.2" y2="419.83"/><path class="cls-1" d="M1113.22,553.35c4.75-9.5,47.48-111.58,47.48-111.58l45.11-9.5,26.12,59.35v61.73L1203.44,513l-30.87,19h-40.35Z" transform="translate(-748 -181)"/><polyline class="cls-1" points="382.42 332.67 393.71 341.48 424.57 341.48 443.57 320.12 445.94 301.13 422.2 301.13 388.27 318.86"/><polyline class="cls-1" points="403.72 310.78 403.72 322.49 424.57 322.49 424.57 301.13"/><polyline class="cls-1" points="445.94 301.13 455.44 301.13 483.93 310.62 526.66 341.48 538.53 381.84"/><line class="cls-1" x1="455.44" y1="301.13" x2="455.44" y2="331.99"/><polyline class="cls-1" points="556.83 276.6 526.66 341.48 479.18 417.45 445.94 448.31 434.55 493.43"/><polyline class="cls-1" points="445.94 443.57 424.57 350.98 396.09 429.32 365.22 443.57"/><line class="cls-1" x1="483.93" y1="372.35" x2="479.18" y2="417.45"/><line class="cls-1" x1="135.55" y1="424.8" x2="102.9" y2="435.47"/><line class="cls-1" x1="163.43" y1="450.69" x2="139.69" y2="474.43"/><line class="cls-1" x1="253.65" y1="324.87" x2="303.5" y2="346.23"/><line class="cls-1" x1="234.65" y1="526.66" x2="175.3" y2="552.77"/><polyline class="cls-1" points="61.99 219.13 31.22 132.93 54.23 2 125.56 96.07 32.86 134.94"/><polyline class="cls-1" points="546.44 224.98 476.04 194.04 424.57 75.59"/><polyline class="cls-1" points="424.57 73.22 303.5 163.43 390.6 197.83 415.08 260.77 424.57 76.4 355.73 322.49 365.22 372.35 396.09 429.32 445.94 512.41"/><line class="cls-1" x1="358.1" y1="322.49" x2="303.5" y2="348.61"/><line class="cls-1" x1="473.36" y1="422.85" x2="500.54" y2="431.7"/><line class="cls-1" x1="465.86" y1="474.43" x2="443.83" y2="456.68"/><line class="cls-1" x1="428.89" y1="560.61" x2="365.66" y2="521.19"/><path class="cls-1" d="M1293.65,399c0-2.38,26.11-85.47,26.11-85.47l-14.24-126.81-73.59,86.45-7.13,99.71-21.36,59.35,102.08,21.37" transform="translate(-748 -181)"/><line class="cls-1" x1="571.76" y1="132.57" x2="483.93" y2="94.59"/></svg>