<svg xmlns="http://www.w3.org/2000/svg" viewBox="0 0 486.42 459.67"><defs><style>.cls-1,.cls-2,.cls-3,.cls-4,.cls-5{fill:none;stroke-linejoin:round;}.cls-1,.cls-2,.cls-4{stroke:#231f20;}.cls-1{stroke-width:7px;}.cls-2,.cls-5{stroke-width:4px;}.cls-3{stroke:#cf345b;stroke-width:10px;}.cls-4{stroke-width:8px;}.cls-5{stroke:#fbb040;}</style></defs><title>logo_cardinals</title><g id="Layer_4" data-name="Layer 4"><path class="cls-1" d="M153,95s93.33,64.67,168,78.67S491,203,540.33,251s50,100,50,100S639,389,631.67,461c0,0-96-22-147.34,86.67,0,0-52-74-164.66-99.34,0,0,2-22.66-19.34-45.33S253,344.33,251,311.67c0,0-52-46.67-70.67-98.67l12,2.67s-20-24-32-54l13.34,4S155.67,128.33,153,95Z" transform="translate(-149.5 -91.5)"/><path class="cls-2" d="M483.67,527c-22.19-23.59-67.26-67.26-145.34-87.33-1.8-10.95-10.46-32.22-25.68-48.38a231.5,231.5,0,0,1-30-39.42c-9.49-16.06-14.7-30.55-15.46-43.07l-.36-5.8-4.32-3.88c-.41-.36-32.1-32.7-53.47-70.12l22.82,7.52-26.6-31.93A271.2,271.2,0,0,1,187,179l15.4,7.48-14-29a263.25,263.25,0,0,1-13.06-34.6c34.16,20.77,93.24,54,145,63.69l13,2.42c69.32,12.87,155.59,27.88,199,70.14,18.49,18,33.79,38.57,41.55,61.17,5.82,17,7.58,26.33,7.58,26.45l.09,6.89,5.36,6c.05.05,7.44,9.24,17.2,25.66,10.48,17.62,21.26,44.17,21.44,65-2.2-.11-4.59-.18-7.14-.18-16.63,0-47.35.79-73.45,14.77C520.43,478.13,499.85,499.92,483.67,527Z" transform="translate(-149.5 -91.5)"/><path class="cls-3" d="M207,156.33S277,197.67,364.33,211s188,26.67,204,132.67c0,0-33.33,5.33-60.66-22s-69.34-62-126-62c0,0,87.33,107.33,80,164,0,0-2,36.66-25.34,44.66,0,0-44.66-40-80-46,0,0-10.66-28-30-48.66s-28-39.34-30-53.34L329,323s-54.67-28-79.33-67.33L307,273s-54-26-80-62.67l60,19.34S222.33,192.33,207,156.33Z" transform="translate(-149.5 -91.5)"/><path class="cls-4" d="M457.67,303.67S493,337,500.33,343L483,341.67s20,50.66,50,13.33l8.67.67s-8,29.33-41.34,22.66S456.33,327.67,457.67,303.67Z" transform="translate(-149.5 -91.5)"/><path class="cls-5" d="M521,397.67s36.67-11.34,48-33.34c0,0,44,30.67,47.33,72C616.33,436.33,591.67,407.67,521,397.67Z" transform="translate(-149.5 -91.5)"/><path class="cls-5" d="M518.33,413.67s12,23.33,6.67,46.66c0,0,48.67-25.33,88.67-18C613.67,442.33,587,413.67,518.33,413.67Z" transform="translate(-149.5 -91.5)"/></g></svg>